<?xml version="1.0" encoding="utf-8"?>
<!-- Generator: Adobe Illustrator 24.0.3, SVG Export Plug-In . SVG Version: 6.00 Build 0)  -->
<svg version="1.1" id="Layer_1" xmlns="http://www.w3.org/2000/svg" xmlns:xlink="http://www.w3.org/1999/xlink" x="0px" y="0px"
	 viewBox="0 0 600 396" style="enable-background:new 0 0 600 396;" xml:space="preserve">
<style type="text/css">
	.st0{fill:#3F3D56;}
	.st1{fill:#F2F2F2;}
	.st2{fill:#F64E60;}
	.st3{fill:#FF6584;}
	.st4{fill:#E6E6E6;}
	.st5{fill:#FFFFFF;}
	.st6{opacity:0.2;fill:#F64E60;enable-background:new    ;}
	.st7{fill:#2F2E41;}
	.st8{fill:#FFB9B9;}
	.st9{opacity:0.1;enable-background:new    ;}
</style>
<path class="st0" d="M580.9,395.6c-27-3.9-52.9-7.4-77.8-10.2l9.8-15.9c-3.3-1-17.9,8.1-17.9,8.1l12.9-46.3
	c-16.7,1.6-25.2,48.9-25.2,48.9L464.2,364l9,18c-76.2-7.9-142-11-197.3-11.3l8.4-13.6c-3.3-1-17.9,8.1-17.9,8.1l12.9-46.3
	c-16.7,1.6-25.2,48.9-25.2,48.9l-18.6-16.1l9.6,19.1c-46.4,0.6-84.2,3-113.4,5.9c8.5-21.3,37.5-41.4,37.5-41.4
	c-22.1,5.4-33.7,14.6-39.8,23.1c-0.5-26.3,2.7-75,25.8-128.9c0,0-45.7,83-39.9,138.9l0.7,9.9c-38.7,4.5-96.5,18.1-96.5,18.1
	L580.9,395.6z"/>
<path class="st0" d="M336,34.3v335.4c0,8.3-6.8,15.1-15.1,15.1H184.7c-8.3,0-15.1-6.7-15.1-15c0,0,0,0,0,0V34.3
	c0-8.3,6.7-15.1,15.1-15.1c0,0,0,0,0,0h20.4v2.6c0,6.9,5.6,12.4,12.4,12.4h69.3c2.6,0,5.2-0.8,7.4-2.4c0.4-0.3,0.8-0.7,1.2-1
	c2.4-2.3,3.8-5.6,3.8-9v-2.6h21.7C329.2,19.2,336,25.9,336,34.3C336,34.3,336,34.3,336,34.3z"/>
<circle class="st1" cx="207.6" cy="75.1" r="3.6"/>
<path class="st2" d="M295.4,30.8c-0.4,0.4-0.8,0.7-1.2,1c9,15.8,24.1,27.1,41.8,31.1v-1.6C318.8,57.3,304,46.2,295.4,30.8z"/>
<path class="st2" d="M264.4,34.2h-1.7C275,65.4,302.9,87.7,336,92.7v-1.6C303.8,86.1,276.6,64.5,264.4,34.2z"/>
<path class="st2" d="M233.1,34.2h-1.6c13.7,47.5,54.9,82.8,104.5,88.6v-1.6C287.3,115.5,246.8,80.8,233.1,34.2z"/>
<polygon class="st1" points="195.7,101.9 194.7,101.9 194.7,101 194.6,101 194.6,101.9 193.6,101.9 193.6,102.1 194.6,102.1 
	194.6,103 194.7,103 194.7,102.1 195.7,102.1 "/>
<polygon class="st1" points="259.3,54.8 258.4,54.8 258.4,53.9 258.2,53.9 258.2,54.8 257.3,54.8 257.3,55 258.2,55 258.2,55.9 
	258.4,55.9 258.4,55 259.3,55 "/>
<polygon class="st1" points="205,139.2 204.1,139.2 204.1,138.2 203.9,138.2 203.9,139.2 202.9,139.2 202.9,139.4 203.9,139.4 
	203.9,140.3 204.1,140.3 204.1,139.4 205,139.4 "/>
<polygon class="st1" points="248.5,111.7 247.5,111.7 247.5,110.8 247.3,110.8 247.3,111.7 246.4,111.7 246.4,111.9 247.3,111.9 
	247.3,112.9 247.5,112.9 247.5,111.9 248.5,111.9 "/>
<polygon class="st1" points="310.6,128.8 309.6,128.8 309.6,127.9 309.4,127.9 309.4,128.8 308.5,128.8 308.5,129 309.4,129 
	309.4,129.9 309.6,129.9 309.6,129 310.6,129 "/>
<circle class="st3" cx="299.7" cy="83.9" r="2.1"/>
<path class="st4" d="M225.6,132.4l-1.2,0.2c0.4,2.3,0.7,4.8,0.9,7.1l1.2-0.1C226.2,137.2,225.9,134.8,225.6,132.4z"/>
<path class="st4" d="M222.3,118.3l-1.1,0.3c0.7,2.3,1.3,4.6,1.8,6.9l1.2-0.3C223.7,122.9,223,120.6,222.3,118.3z"/>
<path class="st4" d="M217.2,104.7l-1.1,0.5c1,2.2,1.9,4.4,2.8,6.6l1.1-0.4C219.2,109.2,218.2,106.9,217.2,104.7z"/>
<path class="st4" d="M210.3,92l-1,0.6c1.3,2,2.5,4.1,3.6,6.2l1-0.6C212.8,96.1,211.6,94,210.3,92z"/>
<path class="st4" d="M201.7,80.3l-0.9,0.8c1.5,1.8,3,3.7,4.5,5.6l1-0.7C204.7,84.1,203.2,82.2,201.7,80.3z"/>
<path class="st4" d="M191.5,70l-0.8,0.9c1.8,1.6,3.5,3.3,5.2,5l0.9-0.8C195.1,73.2,193.3,71.6,191.5,70z"/>
<path class="st4" d="M180.1,61l-0.7,1c2,1.3,3.9,2.7,5.8,4.2l0.7-0.9C184,63.8,182.1,62.4,180.1,61z"/>
<path class="st4" d="M169.7,54.9v1.3c1.2,0.6,2.5,1.3,3.7,2l0.6-1C172.5,56.4,171.1,55.6,169.7,54.9z"/>
<path class="st4" d="M225.3,244.2c0.2-1.2,0.4-2.3,0.5-3.5l1.2,0.2c-0.2,1.2-0.3,2.4-0.5,3.6L225.3,244.2z"/>
<path class="st4" d="M222,258.2l1.1,0.4c0.7-2.3,1.4-4.7,1.9-7l-1.2-0.3C223.3,253.6,222.7,255.9,222,258.2z"/>
<path class="st4" d="M216.8,271.5l1.1,0.5c1-2.2,2-4.4,2.9-6.7l-1.1-0.4C218.7,267.2,217.8,269.4,216.8,271.5z"/>
<path class="st4" d="M209.8,284.1l1,0.6c1.3-2,2.6-4.1,3.8-6.2l-1-0.6C212.3,280,211.1,282.1,209.8,284.1z"/>
<path class="st4" d="M201.1,295.5l0.9,0.8c1.6-1.8,3.1-3.7,4.6-5.6l-1-0.7C204.2,291.9,202.7,293.7,201.1,295.5z"/>
<path class="st4" d="M191,305.7l0.8,0.9c1.8-1.6,3.6-3.3,5.3-5l-0.8-0.8C194.6,302.5,192.8,304.1,191,305.7z"/>
<path class="st4" d="M179.6,314.4l0.7,1c2-1.3,4-2.7,5.9-4.2l-0.7-1C183.5,311.7,181.6,313.1,179.6,314.4z"/>
<path class="st4" d="M174,319.2c-1.4,0.8-2.9,1.6-4.4,2.3v-1.3c1.3-0.7,2.6-1.3,3.8-2L174,319.2z"/>
<path class="st4" d="M225.6,147.1l1.2,0c0,1.2,0,2.4,0,3.6l-1.2,0C225.7,149.5,225.7,148.3,225.6,147.1z"/>
<path class="st5" d="M174.9,175.3h121.7c18.9,0,34.2,15.3,34.2,34.2v4.5l0,0H209c-18.9,0-34.2-15.3-34.2-34.2c0,0,0,0,0,0V175.3
	L174.9,175.3z"/>
<path class="st1" d="M255.7,384.3c-0.1-0.2-2.9-4.9-3.9-14.6c-0.9-8.9-0.3-23.9,7.5-44.9c14.8-39.7-3.4-71.7-3.6-72l0.9-0.5
	c0,0.1,4.7,8.2,7.5,21.2c3.7,17.2,2.3,35.1-3.8,51.6c-14.7,39.6-3.8,58.4-3.7,58.5L255.7,384.3z"/>
<circle class="st2" cx="249.9" cy="243.8" r="6.7"/>
<circle class="st1" cx="271.1" cy="268.6" r="6.7"/>
<circle class="st2" cx="256.6" cy="285.2" r="6.7"/>
<circle class="st2" cx="274.2" cy="299.2" r="6.7"/>
<circle class="st1" cx="251.4" cy="320.9" r="6.7"/>
<path class="st1" d="M259.7,384.6c0,0-6.7-16.6,13.5-29L259.7,384.6z"/>
<path class="st1" d="M251.5,384.3c0,0-3.1-17.6-26.8-17.5L251.5,384.3z"/>
<circle class="st6" cx="355.8" cy="207.4" r="41.4"/>
<circle class="st6" cx="224.7" cy="194.6" r="29.2"/>
<circle class="st2" cx="224.7" cy="194.6" r="19.2"/>
<path class="st5" d="M228.2,190.5c0-1.9-1.6-3.5-3.5-3.5c-1.9,0-3.5,1.6-3.5,3.5c0,1.1,0.5,2,1.3,2.7l-1.3,9h7l-1.3-9
	C227.7,192.5,228.2,191.5,228.2,190.5z"/>
<path class="st7" d="M418,46.8c0,0-11.5-10.3-27.1,9.2S351.2,85,345.6,92.6c0,0,23.1-9.6,31-13.5s7.6-3.2,7.6-3.2
	s-10.7,7.6-12.7,15.1s-0.4,13.9-4,21.5c-3.6,7.6,68.5,5.2,68.5,5.2s7.2-12.3,5.2-25.1C439.1,79.8,440.3,48.4,418,46.8z"/>
<path class="st8" d="M396.2,79.3c0,0,2.5,17.6-8.2,21.5s-6.8,9.3-6.8,9.3l16.1,7.9l17.2-5.4l5.7-8.6c0,0-9.3-2.2-6.8-8.6
	c2.5-6.5,3.2-8.6,3.2-8.6L396.2,79.3z"/>
<path class="st9" d="M396.2,79.3c0,0,2.5,17.6-8.2,21.5s-6.8,9.3-6.8,9.3l16.1,7.9l17.2-5.4l5.7-8.6c0,0-9.3-2.2-6.8-8.6
	c2.5-6.5,3.2-8.6,3.2-8.6L396.2,79.3z"/>
<path class="st8" d="M441.4,129.5c0,0-2.5,33-1.8,34.4s0,51.3,0,51.3s5,26.9-1.4,28.3s-5-30.1-5-30.1l-6.5-41.6l0.7-41.2
	L441.4,129.5z"/>
<path class="st9" d="M441.4,129.5c0,0-2.5,33-1.8,34.4s0,51.3,0,51.3s5,26.9-1.4,28.3s-5-30.1-5-30.1l-6.5-41.6l0.7-41.2
	L441.4,129.5z"/>
<path class="st8" d="M371.5,228.8c0,0-11.8,44.8-11.5,66.7s5,52.3,5,52.3s0.7,13.3-0.4,14.7c-1.1,1.4,5.4,7.5,5.4,7.5l6.8-3.9
	l2.5-2.9v-2.5c0,0-3.9-12.2-0.7-21.9c3.2-9.7,5-34.1,1.8-41.6l22.2-66L371.5,228.8z"/>
<path class="st7" d="M370.8,364.4c0,0-4.3-5.4-7.2-3.6c-2.9,1.8-7.5,14-7.5,14s-16.1,15.4-4.7,16.1c11.5,0.7,16.5-3.2,17.9-6.1
	s14.7-10.4,14.7-10.4s-1.4-13.6-3.6-14s-5.4,5.4-5.4,5.4L370.8,364.4z"/>
<path class="st8" d="M410.6,231.7v44.5c0,5.4,0.4,10.8,1.1,16.1c1.1,7.9-6.1,66.7-6.1,66.7l0.7,10.4l9-0.7l1.1-9l12.9-39.4
	c0,0,4.3-24,2.2-33c-2.2-9,11.1-66.3,11.1-66.3L410.6,231.7z"/>
<path class="st7" d="M403.4,366.9l2.7-0.6c0,0,2-4.4,4.5-3.4c1.8,0.8,3.4,1.8,5,3l1.1,2c0,0,2.5,5.4,5.7,9
	c3.2,3.6,6.8,11.5,1.4,12.2c-5.4,0.7-12.5,1.1-14.7-0.7c-2.2-1.8-0.7-4.7-2.9-5.4c-2.2-0.7-3.9-2.9-3.6-3.6
	C403,378.7,403.4,366.9,403.4,366.9z"/>
<circle class="st8" cx="410.6" cy="75.7" r="15.9"/>
<path class="st2" d="M380.4,103.7l4.7-1.7c0,0-1.9,3.1,8.2,4.9c10,1.8,20.4,2.4,25.1-3.4c0,0,1.8-0.9,4.3,1.7
	c2.5,2.5,3.9,1.8,3.9,1.8l-1.8,9.3l-3.6,17.2l-4.7,12.9l-13.3-2.9L389,133.1l-5.4-14v-12.9L380.4,103.7z"/>
<path class="st2" d="M424.2,108.7l3.6-2.5c0,0,12.2,2.2,12.9,7.9l-9.3,17.9c1.9,5,1.8,10.5-0.4,15.4c-3.6,8.2-3.2,10-3.2,10
	l-2.5,10.8l-45.5,3.6c0,0-1.8-4.3-2.5-5c-0.7-0.7-0.7-3.2,0-3.2c0.7,0,0-1.1-0.7-2.2c-0.7-1.1-1.1-1.4,0-2.9
	c1.1-1.4-1.8-14.3-1.8-14.3v-14l-12.2-16.1c0,0,4.3-6.5,6.5-7.2c2.2-0.7,12.4-3.5,12.4-3.5l2.3,3.4l3.2,25.9l4.7,15.8l19.6-3.3
	l7.6-12.8l5-15.1L424.2,108.7z"/>
<path class="st2" d="M437.8,112l2.9,2.2c0,0,2.5,20.1,1.8,21.5c-0.7,1.4-13.3,2.9-13.6,2.2S437.8,112,437.8,112z"/>
<path class="st7" d="M378.7,101.9l3.6,23.7c0,0-3.2,35.1-2.5,42.3l0.7,2.2c0,0-1.4-0.7-1.8,0.7c-0.4,1.4,0,6.1,0,6.1
	s-2.2,2.2-2.9,14c-0.7,11.8-9.3,40.2-6.1,41.2c3.2,1.1,22.6,6.5,33,5.4c10.4-1.1,47.7-13.6,47.3-16.9c-0.4-3.2-18.3-48.8-18.3-48.8
	s-3.2-5.4-3.2-6.1s4.3-3.6,3.2-6.5c-1.1-2.9-6.8-33-6.8-33l3.9-21.5l-5.4-1.4l-3.9,20.8c0,0-15.4,7.5-31.5,0.7l-3.6-24.4
	L378.7,101.9z"/>
<path class="st7" d="M395.9,64.3c0,0,26.5,18.3,33.7,10c7.2-8.2-12.5-15.4-12.5-15.4l-16.5-1.8L395.9,64.3z"/>
<path class="st2" d="M354.7,258.8c6.2,4.6,15,3.3,19.6-2.9c4.6-6.2,3.3-15-2.9-19.6c-6.2-4.6-15-3.3-19.6,2.9
	c-3,4.1-3.6,9.5-1.5,14.1l-36.6,30.5l-4.9-5.8l-2.2,1.5l-2.4-2.9l2-1.7l-2.4-2.9l-3.1,2.6l1.5,1.8l-3.3,2.8l-1.5-1.8l-4.9,4.1
	l2.2,2.7l1.8-1.5l2.4,2.9l-2.2,1.9l4.5,5.3l-5.3,4.5l5.4,6.4L354.7,258.8z M363.8,238.4c5.1,0.4,8.9,4.9,8.4,10
	c-0.4,5.1-4.9,8.9-10,8.4c-5.1-0.4-8.9-4.9-8.4-10S358.7,238,363.8,238.4L363.8,238.4z"/>
<path class="st8" d="M360,133.8c0,0,2.5,33,1.8,34.4s0,51.3,0,51.3s-5,26.9,1.4,28.3c6.5,1.4,5-30.1,5-30.1l6.5-41.6l-0.7-41.2
	L360,133.8z"/>
<path class="st2" d="M365.4,113l-2.9,1.1c0,0-5.4,22.6-3.9,22.6s18.6,2.2,18.6,1.4c0-0.7-3.2-18.3-3.2-18.3L365.4,113z"/>
</svg>
