<svg id="Layer_1" data-name="Layer 1" xmlns="http://www.w3.org/2000/svg" viewBox="0 0 247.47 61.85"><defs><style>.cls-1{fill:#231f20;}.cls-2{fill:#ec1c24;}</style></defs><title>navbar</title><g id="estética"><path class="cls-1" d="M86,69.53h2.27C87.34,75,83,79.14,76.07,79.14c-8.23,0-13.3-6.39-13.3-16.41,0-9.06,4.95-15.21,12.94-15.21,6.68,0,11.27,4.18,12.47,10.92a27.4,27.4,0,0,1,.35,5.07H64.91c.12,8.71,4.6,13.72,11.16,13.72C81.5,77.23,85.19,74.13,86,69.53ZM64.91,61.6H86.45c-.24-7.81-4.6-12.17-10.74-12.17C69.21,49.43,65.21,54.26,64.91,61.6Z" transform="translate(-4.26 -36.01)"/><path class="cls-1" d="M115.85,57.9h-2.2c0-5.31-3.16-8.41-8.59-8.41-4.54,0-7.82,2.33-7.82,6.09,0,4.05,2.63,4.89,8.24,6.14,6.74,1.49,11.27,2.86,11.27,9,0,5-4.36,8.47-10.62,8.47-7.39,0-11.63-4.06-11.69-11h2.15c0,5.73,3.46,9,9.54,9,4.89,0,8.47-2.57,8.47-6.38,0-4.48-2.86-5.49-9.72-7-5.61-1.26-9.78-2.45-9.78-8,0-5,4.23-8.18,10-8.18C111.8,47.52,115.79,51.4,115.85,57.9Z" transform="translate(-4.26 -36.01)"/><path class="cls-1" d="M134.47,76.39v2a14,14,0,0,1-2.33.24c-4.47,0-6.32-2.15-6.32-7.46v-21h-5.67V48.18h5.67v-7H128v7h6.21v1.91H128v21c0,3.94,1.2,5.49,4.42,5.49A10.11,10.11,0,0,0,134.47,76.39Z" transform="translate(-4.26 -36.01)"/><path class="cls-1" d="M161.19,69.53h2.26c-.89,5.49-5.24,9.61-12.16,9.61-8.23,0-13.3-6.39-13.3-16.41,0-9.06,4.95-15.21,12.94-15.21,6.68,0,11.27,4.18,12.46,10.92a26.51,26.51,0,0,1,.36,5.07H140.13c.12,8.71,4.6,13.72,11.16,13.72C156.71,77.23,160.41,74.13,161.19,69.53ZM140.13,61.6h21.53c-.23-7.81-4.59-12.17-10.73-12.17C144.43,49.43,140.43,54.26,140.13,61.6Zm7.58-17.3L153.25,36h2.87l-6.26,8.29Z" transform="translate(-4.26 -36.01)"/><path class="cls-1" d="M181.11,76.39v2a13.78,13.78,0,0,1-2.32.24c-4.48,0-6.33-2.15-6.33-7.46v-21H166.8V48.18h5.66v-7h2.15v7h6.2v1.91h-6.2v21c0,3.94,1.19,5.49,4.41,5.49A10,10,0,0,0,181.11,76.39Z" transform="translate(-4.26 -36.01)"/><path class="cls-1" d="M188.21,40.84V36h2.15v4.83Zm0,37.64V48.18h2.15v30.3Z" transform="translate(-4.26 -36.01)"/><path class="cls-1" d="M223.16,58.2H220.9a9.13,9.13,0,0,0-9.49-8.71c-6.74,0-10.85,5.19-10.85,13.84s4.11,13.84,10.85,13.84c5.31,0,9-3.82,9.49-9h2.26c-.53,6.44-5.13,11-11.75,11-8.11,0-13.06-6-13.06-15.81s5-15.81,13.06-15.81C218,47.52,222.63,51.82,223.16,58.2Z" transform="translate(-4.26 -36.01)"/><path class="cls-1" d="M251.14,58.8V71.38a38.22,38.22,0,0,0,.6,7.1h-2a34,34,0,0,1-.48-5.73h-.06c-2,3.88-5.6,6.33-11.09,6.33-6,0-10-3.4-10-8.53,0-4.78,2.74-7.76,10.91-9,2.81-.42,7-.95,10.08-1.19V58.62c0-6.5-3.58-9.19-8.53-9.19-5.78,0-8.7,3.28-9,7.88h-2.21c.36-5.79,4.29-9.79,11.21-9.79C246.79,47.52,251.14,51,251.14,58.8Zm-2.09,3.46c-2.92.23-7.21.77-9.84,1.19-6.74,1-8.94,3.28-8.94,7,0,4.05,3.16,6.68,8.17,6.68a10.06,10.06,0,0,0,7.69-3.11c2.15-2.32,2.92-4.11,2.92-8.64V62.26Z" transform="translate(-4.26 -36.01)"/></g><path class="cls-2" d="M112.76,92.28h-.61A2.43,2.43,0,0,0,109.62,90c-1.79,0-2.89,1.38-2.89,3.68s1.1,3.69,2.89,3.69a2.49,2.49,0,0,0,2.53-2.4h.61a3,3,0,0,1-3.14,2.93c-2.16,0-3.48-1.59-3.48-4.22s1.32-4.21,3.48-4.21A3,3,0,0,1,112.76,92.28Z" transform="translate(-4.26 -36.01)"/><path class="cls-2" d="M118.48,89.61v.55l-.46,0c-1.59,0-2.62,1-2.62,3.07v4.48h-.58V89.61h.58v1.57h0A2.7,2.7,0,0,1,118,89.56,1.91,1.91,0,0,1,118.48,89.61Z" transform="translate(-4.26 -36.01)"/><path class="cls-2" d="M125.19,95.3h.6a3,3,0,0,1-3.24,2.56c-2.19,0-3.55-1.7-3.55-4.37,0-2.42,1.32-4.06,3.45-4.06a3.24,3.24,0,0,1,3.33,2.91,7.11,7.11,0,0,1,.09,1.35h-6.29c0,2.32,1.22,3.66,3,3.66A2.48,2.48,0,0,0,125.19,95.3Zm-5.61-2.12h5.74c-.07-2.08-1.23-3.24-2.87-3.24S119.66,91.23,119.58,93.18Z" transform="translate(-4.26 -36.01)"/><path class="cls-2" d="M133.41,92.44v3.35a9.79,9.79,0,0,0,.16,1.89H133a9,9,0,0,1-.13-1.52h0a3.09,3.09,0,0,1-3,1.68c-1.61,0-2.67-.9-2.67-2.27s.73-2.07,2.91-2.4c.74-.11,1.87-.26,2.68-.32v-.46a2.34,2.34,0,0,0-4.67-.35h-.59a2.7,2.7,0,0,1,3-2.61C132.25,89.43,133.41,90.35,133.41,92.44Zm-.56.92c-.78.06-1.92.2-2.62.32-1.8.27-2.39.87-2.39,1.87s.85,1.78,2.18,1.78a2.71,2.71,0,0,0,2-.82,2.79,2.79,0,0,0,.78-2.31Z" transform="translate(-4.26 -36.01)"/><path class="cls-2" d="M138.56,97.13v.52a4,4,0,0,1-.62.06c-1.19,0-1.68-.57-1.68-2V90.11h-1.51v-.5h1.51V87.74h.57v1.87h1.65v.5h-1.65v5.62c0,1,.32,1.46,1.17,1.46A2.82,2.82,0,0,0,138.56,97.13Z" transform="translate(-4.26 -36.01)"/><path class="cls-2" d="M145.68,95.3h.61a3.05,3.05,0,0,1-3.24,2.56c-2.2,0-3.55-1.7-3.55-4.37,0-2.42,1.32-4.06,3.45-4.06a3.24,3.24,0,0,1,3.32,2.91,7.07,7.07,0,0,1,.1,1.35h-6.3c0,2.32,1.23,3.66,3,3.66A2.47,2.47,0,0,0,145.68,95.3Zm-5.61-2.12h5.74c-.06-2.08-1.22-3.24-2.86-3.24S140.15,91.23,140.07,93.18Z" transform="translate(-4.26 -36.01)"/><path class="cls-2" d="M148.09,97.68V96.43h.77v1.25Z" transform="translate(-4.26 -36.01)"/><path class="cls-2" d="M154.89,97.68V86.36h.57V97.68Z" transform="translate(-4.26 -36.01)"/><path class="cls-2" d="M164.67,93.64c0,2.63-1.34,4.22-3.55,4.22s-3.53-1.59-3.53-4.22,1.34-4.21,3.53-4.21S164.67,91,164.67,93.64Zm-6.49,0c0,2.31,1.1,3.69,2.94,3.69s3-1.38,3-3.69S163,90,161.12,90,158.18,91.34,158.18,93.64Z" transform="translate(-4.26 -36.01)"/><path class="cls-2" d="M168.5,97.68l-3.11-8.07H166l1.4,3.65,1.47,3.85h0l1.48-3.85,1.4-3.65h.62l-3.14,8.07Z" transform="translate(-4.26 -36.01)"/><path class="cls-2" d="M179.28,95.3h.61a3.06,3.06,0,0,1-3.25,2.56c-2.19,0-3.54-1.7-3.54-4.37,0-2.42,1.32-4.06,3.45-4.06a3.24,3.24,0,0,1,3.32,2.91,7.11,7.11,0,0,1,.09,1.35h-6.29c0,2.32,1.22,3.66,3,3.66A2.48,2.48,0,0,0,179.28,95.3Zm-5.61-2.12h5.74c-.06-2.08-1.23-3.24-2.86-3.24S173.75,91.23,173.67,93.18Z" transform="translate(-4.26 -36.01)"/><path class="cls-2" d="M181.68,97.68V96.43h.78v1.25Z" transform="translate(-4.26 -36.01)"/><path class="cls-2" d="M188.49,97.68V86.36h.57V97.68Z" transform="translate(-4.26 -36.01)"/><path class="cls-2" d="M191.84,87.65V86.36h.57v1.29Zm0,10V89.61h.57v8.07Z" transform="translate(-4.26 -36.01)"/><path class="cls-2" d="M196.9,97.68l-3.12-8.07h.62l1.4,3.65,1.46,3.85h0l1.47-3.85,1.4-3.65h.62l-3.13,8.07Z" transform="translate(-4.26 -36.01)"/><path class="cls-2" d="M207.68,95.3h.6A3.05,3.05,0,0,1,205,97.86c-2.19,0-3.55-1.7-3.55-4.37,0-2.42,1.32-4.06,3.45-4.06a3.24,3.24,0,0,1,3.33,2.91,7.11,7.11,0,0,1,.09,1.35h-6.29c0,2.32,1.22,3.66,3,3.66A2.48,2.48,0,0,0,207.68,95.3Zm-5.61-2.12h5.74c-.07-2.08-1.23-3.24-2.87-3.24S202.15,91.23,202.07,93.18Z" transform="translate(-4.26 -36.01)"/><polygon class="cls-2" points="40.39 33.22 37.61 35.73 20.06 19.9 2.77 35.5 0 32.99 20.06 15.01 40.39 33.22"/><g id="Rectangle_2" data-name="Rectangle 2"><rect class="cls-2" x="14.75" y="34.87" width="10.88" height="5.02"/></g></svg>